<?xml version="1.0" standalone="no"?>
<!DOCTYPE svg PUBLIC "-//W3C//DTD SVG 20010904//EN"
 "http://www.w3.org/TR/2001/REC-SVG-20010904/DTD/svg10.dtd">
<svg version="1.0" xmlns="http://www.w3.org/2000/svg"
 width="512.000000pt" height="512.000000pt" viewBox="0 0 512.000000 512.000000"
 preserveAspectRatio="xMidYMid meet">

<g transform="translate(0.000000,512.000000) scale(0.100000,-0.100000)"
fill="#000000" stroke="none">
<path d="M2375 5105 c-108 -16 -245 -60 -352 -112 -372 -183 -626 -544 -673
-958 -5 -49 -10 -210 -10 -357 l0 -268 -158 0 c-169 0 -222 -9 -314 -56 -63
-32 -156 -125 -195 -194 -66 -118 -63 -54 -63 -1456 0 -1092 2 -1278 15 -1327
47 -182 180 -315 362 -362 86 -23 3060 -23 3146 0 182 47 315 180 362 362 13
49 15 235 15 1327 0 1402 3 1338 -63 1456 -39 69 -132 162 -195 194 -92 47
-145 56 -314 56 l-158 0 0 268 c0 147 -5 308 -10 357 -47 414 -301 775 -673
958 -224 109 -474 148 -722 112z m365 -471 c36 -8 108 -36 160 -61 81 -40 109
-61 190 -142 78 -78 104 -112 138 -181 77 -155 85 -202 86 -540 l1 -295 -755
0 -755 0 1 295 c1 267 3 303 22 375 37 139 94 237 197 341 197 199 440 269
715 208z m1280 -2924 l0 -1220 -1460 0 -1460 0 0 1220 0 1220 1460 0 1460 0 0
-1220z"/>
<path d="M2408 2167 c-168 -58 -287 -193 -325 -371 -52 -246 110 -495 364
-561 156 -41 334 9 452 126 184 185 197 460 29 661 -121 145 -340 206 -520
145z"/>
</g>
</svg>
